<mxfile host="app.diagrams.net" agent="Mozilla/5.0 (X11; Linux x86_64) AppleWebKit/537.36 (KHTML, like Gecko) Chrome/127.0.0.0 Safari/537.36" version="24.7.14">
  <diagram name="Page-1" id="Vd2Ki4q6wjaUrk6o1mtO">
    <mxGraphModel dx="1240" dy="1142" grid="1" gridSize="10" guides="1" tooltips="1" connect="1" arrows="1" fold="1" page="1" pageScale="1" pageWidth="850" pageHeight="1100" math="0" shadow="0">
      <root>
        <mxCell id="0" />
        <mxCell id="1" parent="0" />
        <mxCell id="n46zyQjSm6g1xJVM7zoa-1" value="Database" style="swimlane;fontStyle=1;align=center;verticalAlign=top;childLayout=stackLayout;horizontal=1;startSize=26;horizontalStack=0;resizeParent=1;resizeParentMax=0;resizeLast=0;collapsible=1;marginBottom=0;whiteSpace=wrap;html=1;" vertex="1" parent="1">
          <mxGeometry x="580" y="270" width="160" height="86" as="geometry" />
        </mxCell>
        <mxCell id="n46zyQjSm6g1xJVM7zoa-2" value="+ field: type" style="text;strokeColor=none;fillColor=none;align=left;verticalAlign=top;spacingLeft=4;spacingRight=4;overflow=hidden;rotatable=0;points=[[0,0.5],[1,0.5]];portConstraint=eastwest;whiteSpace=wrap;html=1;" vertex="1" parent="n46zyQjSm6g1xJVM7zoa-1">
          <mxGeometry y="26" width="160" height="26" as="geometry" />
        </mxCell>
        <mxCell id="n46zyQjSm6g1xJVM7zoa-3" value="" style="line;strokeWidth=1;fillColor=none;align=left;verticalAlign=middle;spacingTop=-1;spacingLeft=3;spacingRight=3;rotatable=0;labelPosition=right;points=[];portConstraint=eastwest;strokeColor=inherit;" vertex="1" parent="n46zyQjSm6g1xJVM7zoa-1">
          <mxGeometry y="52" width="160" height="8" as="geometry" />
        </mxCell>
        <mxCell id="n46zyQjSm6g1xJVM7zoa-4" value="+ method(type): type" style="text;strokeColor=none;fillColor=none;align=left;verticalAlign=top;spacingLeft=4;spacingRight=4;overflow=hidden;rotatable=0;points=[[0,0.5],[1,0.5]];portConstraint=eastwest;whiteSpace=wrap;html=1;" vertex="1" parent="n46zyQjSm6g1xJVM7zoa-1">
          <mxGeometry y="60" width="160" height="26" as="geometry" />
        </mxCell>
        <mxCell id="n46zyQjSm6g1xJVM7zoa-5" value="Table&lt;div&gt;&lt;br&gt;&lt;/div&gt;" style="swimlane;fontStyle=1;align=center;verticalAlign=top;childLayout=stackLayout;horizontal=1;startSize=26;horizontalStack=0;resizeParent=1;resizeParentMax=0;resizeLast=0;collapsible=1;marginBottom=0;whiteSpace=wrap;html=1;" vertex="1" parent="1">
          <mxGeometry x="850" y="270" width="160" height="86" as="geometry" />
        </mxCell>
        <mxCell id="n46zyQjSm6g1xJVM7zoa-6" value="+ field: type" style="text;strokeColor=none;fillColor=none;align=left;verticalAlign=top;spacingLeft=4;spacingRight=4;overflow=hidden;rotatable=0;points=[[0,0.5],[1,0.5]];portConstraint=eastwest;whiteSpace=wrap;html=1;" vertex="1" parent="n46zyQjSm6g1xJVM7zoa-5">
          <mxGeometry y="26" width="160" height="26" as="geometry" />
        </mxCell>
        <mxCell id="n46zyQjSm6g1xJVM7zoa-7" value="" style="line;strokeWidth=1;fillColor=none;align=left;verticalAlign=middle;spacingTop=-1;spacingLeft=3;spacingRight=3;rotatable=0;labelPosition=right;points=[];portConstraint=eastwest;strokeColor=inherit;" vertex="1" parent="n46zyQjSm6g1xJVM7zoa-5">
          <mxGeometry y="52" width="160" height="8" as="geometry" />
        </mxCell>
        <mxCell id="n46zyQjSm6g1xJVM7zoa-8" value="+ method(type): type" style="text;strokeColor=none;fillColor=none;align=left;verticalAlign=top;spacingLeft=4;spacingRight=4;overflow=hidden;rotatable=0;points=[[0,0.5],[1,0.5]];portConstraint=eastwest;whiteSpace=wrap;html=1;" vertex="1" parent="n46zyQjSm6g1xJVM7zoa-5">
          <mxGeometry y="60" width="160" height="26" as="geometry" />
        </mxCell>
        <mxCell id="n46zyQjSm6g1xJVM7zoa-16" value="Column" style="swimlane;fontStyle=1;align=center;verticalAlign=top;childLayout=stackLayout;horizontal=1;startSize=26;horizontalStack=0;resizeParent=1;resizeParentMax=0;resizeLast=0;collapsible=1;marginBottom=0;whiteSpace=wrap;html=1;" vertex="1" parent="1">
          <mxGeometry x="850" y="70" width="160" height="86" as="geometry" />
        </mxCell>
        <mxCell id="n46zyQjSm6g1xJVM7zoa-17" value="+ field: type" style="text;strokeColor=none;fillColor=none;align=left;verticalAlign=top;spacingLeft=4;spacingRight=4;overflow=hidden;rotatable=0;points=[[0,0.5],[1,0.5]];portConstraint=eastwest;whiteSpace=wrap;html=1;" vertex="1" parent="n46zyQjSm6g1xJVM7zoa-16">
          <mxGeometry y="26" width="160" height="26" as="geometry" />
        </mxCell>
        <mxCell id="n46zyQjSm6g1xJVM7zoa-18" value="" style="line;strokeWidth=1;fillColor=none;align=left;verticalAlign=middle;spacingTop=-1;spacingLeft=3;spacingRight=3;rotatable=0;labelPosition=right;points=[];portConstraint=eastwest;strokeColor=inherit;" vertex="1" parent="n46zyQjSm6g1xJVM7zoa-16">
          <mxGeometry y="52" width="160" height="8" as="geometry" />
        </mxCell>
        <mxCell id="n46zyQjSm6g1xJVM7zoa-19" value="+ method(type): type" style="text;strokeColor=none;fillColor=none;align=left;verticalAlign=top;spacingLeft=4;spacingRight=4;overflow=hidden;rotatable=0;points=[[0,0.5],[1,0.5]];portConstraint=eastwest;whiteSpace=wrap;html=1;" vertex="1" parent="n46zyQjSm6g1xJVM7zoa-16">
          <mxGeometry y="60" width="160" height="26" as="geometry" />
        </mxCell>
        <mxCell id="n46zyQjSm6g1xJVM7zoa-20" value="" style="endArrow=open;html=1;endSize=12;startArrow=diamondThin;startSize=14;startFill=1;edgeStyle=orthogonalEdgeStyle;align=left;verticalAlign=bottom;rounded=0;" edge="1" parent="1" source="n46zyQjSm6g1xJVM7zoa-5" target="n46zyQjSm6g1xJVM7zoa-16">
          <mxGeometry x="-1" y="3" relative="1" as="geometry">
            <mxPoint x="500" y="230" as="sourcePoint" />
            <mxPoint x="660" y="230" as="targetPoint" />
          </mxGeometry>
        </mxCell>
        <mxCell id="n46zyQjSm6g1xJVM7zoa-22" value="Use" style="endArrow=open;endSize=12;dashed=1;html=1;rounded=0;" edge="1" parent="1" source="n46zyQjSm6g1xJVM7zoa-1" target="n46zyQjSm6g1xJVM7zoa-5">
          <mxGeometry width="160" relative="1" as="geometry">
            <mxPoint x="370" y="220" as="sourcePoint" />
            <mxPoint x="530" y="220" as="targetPoint" />
          </mxGeometry>
        </mxCell>
        <mxCell id="n46zyQjSm6g1xJVM7zoa-27" value="Row&lt;div&gt;&lt;br&gt;&lt;/div&gt;" style="swimlane;fontStyle=1;align=center;verticalAlign=top;childLayout=stackLayout;horizontal=1;startSize=26;horizontalStack=0;resizeParent=1;resizeParentMax=0;resizeLast=0;collapsible=1;marginBottom=0;whiteSpace=wrap;html=1;" vertex="1" parent="1">
          <mxGeometry x="580" y="497.97" width="160" height="86" as="geometry" />
        </mxCell>
        <mxCell id="n46zyQjSm6g1xJVM7zoa-28" value="+ field: type" style="text;strokeColor=none;fillColor=none;align=left;verticalAlign=top;spacingLeft=4;spacingRight=4;overflow=hidden;rotatable=0;points=[[0,0.5],[1,0.5]];portConstraint=eastwest;whiteSpace=wrap;html=1;" vertex="1" parent="n46zyQjSm6g1xJVM7zoa-27">
          <mxGeometry y="26" width="160" height="26" as="geometry" />
        </mxCell>
        <mxCell id="n46zyQjSm6g1xJVM7zoa-29" value="" style="line;strokeWidth=1;fillColor=none;align=left;verticalAlign=middle;spacingTop=-1;spacingLeft=3;spacingRight=3;rotatable=0;labelPosition=right;points=[];portConstraint=eastwest;strokeColor=inherit;" vertex="1" parent="n46zyQjSm6g1xJVM7zoa-27">
          <mxGeometry y="52" width="160" height="8" as="geometry" />
        </mxCell>
        <mxCell id="n46zyQjSm6g1xJVM7zoa-30" value="+ method(type): type" style="text;strokeColor=none;fillColor=none;align=left;verticalAlign=top;spacingLeft=4;spacingRight=4;overflow=hidden;rotatable=0;points=[[0,0.5],[1,0.5]];portConstraint=eastwest;whiteSpace=wrap;html=1;" vertex="1" parent="n46zyQjSm6g1xJVM7zoa-27">
          <mxGeometry y="60" width="160" height="26" as="geometry" />
        </mxCell>
        <mxCell id="n46zyQjSm6g1xJVM7zoa-31" value="DataValue" style="swimlane;fontStyle=1;align=center;verticalAlign=top;childLayout=stackLayout;horizontal=1;startSize=26;horizontalStack=0;resizeParent=1;resizeParentMax=0;resizeLast=0;collapsible=1;marginBottom=0;whiteSpace=wrap;html=1;" vertex="1" parent="1">
          <mxGeometry x="850" y="497.97" width="160" height="86" as="geometry" />
        </mxCell>
        <mxCell id="n46zyQjSm6g1xJVM7zoa-32" value="+ field: type" style="text;strokeColor=none;fillColor=none;align=left;verticalAlign=top;spacingLeft=4;spacingRight=4;overflow=hidden;rotatable=0;points=[[0,0.5],[1,0.5]];portConstraint=eastwest;whiteSpace=wrap;html=1;" vertex="1" parent="n46zyQjSm6g1xJVM7zoa-31">
          <mxGeometry y="26" width="160" height="26" as="geometry" />
        </mxCell>
        <mxCell id="n46zyQjSm6g1xJVM7zoa-33" value="" style="line;strokeWidth=1;fillColor=none;align=left;verticalAlign=middle;spacingTop=-1;spacingLeft=3;spacingRight=3;rotatable=0;labelPosition=right;points=[];portConstraint=eastwest;strokeColor=inherit;" vertex="1" parent="n46zyQjSm6g1xJVM7zoa-31">
          <mxGeometry y="52" width="160" height="8" as="geometry" />
        </mxCell>
        <mxCell id="n46zyQjSm6g1xJVM7zoa-34" value="+ method(type): type" style="text;strokeColor=none;fillColor=none;align=left;verticalAlign=top;spacingLeft=4;spacingRight=4;overflow=hidden;rotatable=0;points=[[0,0.5],[1,0.5]];portConstraint=eastwest;whiteSpace=wrap;html=1;" vertex="1" parent="n46zyQjSm6g1xJVM7zoa-31">
          <mxGeometry y="60" width="160" height="26" as="geometry" />
        </mxCell>
        <mxCell id="n46zyQjSm6g1xJVM7zoa-35" value="Use" style="endArrow=open;endSize=12;dashed=1;html=1;rounded=0;" edge="1" parent="1" source="n46zyQjSm6g1xJVM7zoa-5" target="n46zyQjSm6g1xJVM7zoa-31">
          <mxGeometry width="160" relative="1" as="geometry">
            <mxPoint x="450" y="400" as="sourcePoint" />
            <mxPoint x="610" y="400" as="targetPoint" />
          </mxGeometry>
        </mxCell>
        <mxCell id="n46zyQjSm6g1xJVM7zoa-36" value="DataType" style="swimlane;fontStyle=1;align=center;verticalAlign=top;childLayout=stackLayout;horizontal=1;startSize=26;horizontalStack=0;resizeParent=1;resizeParentMax=0;resizeLast=0;collapsible=1;marginBottom=0;whiteSpace=wrap;html=1;" vertex="1" parent="1">
          <mxGeometry x="1685" y="270" width="160" height="86" as="geometry" />
        </mxCell>
        <mxCell id="n46zyQjSm6g1xJVM7zoa-37" value="+ field: type" style="text;strokeColor=none;fillColor=none;align=left;verticalAlign=top;spacingLeft=4;spacingRight=4;overflow=hidden;rotatable=0;points=[[0,0.5],[1,0.5]];portConstraint=eastwest;whiteSpace=wrap;html=1;" vertex="1" parent="n46zyQjSm6g1xJVM7zoa-36">
          <mxGeometry y="26" width="160" height="26" as="geometry" />
        </mxCell>
        <mxCell id="n46zyQjSm6g1xJVM7zoa-38" value="" style="line;strokeWidth=1;fillColor=none;align=left;verticalAlign=middle;spacingTop=-1;spacingLeft=3;spacingRight=3;rotatable=0;labelPosition=right;points=[];portConstraint=eastwest;strokeColor=inherit;" vertex="1" parent="n46zyQjSm6g1xJVM7zoa-36">
          <mxGeometry y="52" width="160" height="8" as="geometry" />
        </mxCell>
        <mxCell id="n46zyQjSm6g1xJVM7zoa-39" value="+ method(type): type" style="text;strokeColor=none;fillColor=none;align=left;verticalAlign=top;spacingLeft=4;spacingRight=4;overflow=hidden;rotatable=0;points=[[0,0.5],[1,0.5]];portConstraint=eastwest;whiteSpace=wrap;html=1;" vertex="1" parent="n46zyQjSm6g1xJVM7zoa-36">
          <mxGeometry y="60" width="160" height="26" as="geometry" />
        </mxCell>
        <mxCell id="n46zyQjSm6g1xJVM7zoa-40" value="" style="endArrow=open;html=1;endSize=12;startArrow=diamondThin;startSize=14;startFill=1;edgeStyle=orthogonalEdgeStyle;align=left;verticalAlign=bottom;rounded=0;" edge="1" parent="1" source="n46zyQjSm6g1xJVM7zoa-16" target="n46zyQjSm6g1xJVM7zoa-36">
          <mxGeometry x="-1" y="3" relative="1" as="geometry">
            <mxPoint x="680" y="400" as="sourcePoint" />
            <mxPoint x="840" y="400" as="targetPoint" />
          </mxGeometry>
        </mxCell>
        <mxCell id="n46zyQjSm6g1xJVM7zoa-41" value="Use" style="endArrow=open;endSize=12;dashed=1;html=1;rounded=0;" edge="1" parent="1" source="n46zyQjSm6g1xJVM7zoa-5" target="n46zyQjSm6g1xJVM7zoa-36">
          <mxGeometry width="160" relative="1" as="geometry">
            <mxPoint x="450" y="400" as="sourcePoint" />
            <mxPoint x="610" y="400" as="targetPoint" />
          </mxGeometry>
        </mxCell>
        <mxCell id="n46zyQjSm6g1xJVM7zoa-74" value="Use" style="endArrow=open;endSize=12;dashed=1;html=1;rounded=0;" edge="1" parent="1" source="n46zyQjSm6g1xJVM7zoa-93" target="n46zyQjSm6g1xJVM7zoa-66">
          <mxGeometry width="160" relative="1" as="geometry">
            <mxPoint x="450" y="400" as="sourcePoint" />
            <mxPoint x="610" y="400" as="targetPoint" />
          </mxGeometry>
        </mxCell>
        <mxCell id="n46zyQjSm6g1xJVM7zoa-76" value="Use" style="endArrow=open;endSize=12;dashed=1;html=1;rounded=0;" edge="1" parent="1" source="n46zyQjSm6g1xJVM7zoa-98" target="n46zyQjSm6g1xJVM7zoa-48">
          <mxGeometry width="160" relative="1" as="geometry">
            <mxPoint x="450" y="400" as="sourcePoint" />
            <mxPoint x="610" y="400" as="targetPoint" />
          </mxGeometry>
        </mxCell>
        <mxCell id="n46zyQjSm6g1xJVM7zoa-77" value="Use" style="endArrow=open;endSize=12;dashed=1;html=1;rounded=0;" edge="1" parent="1" source="n46zyQjSm6g1xJVM7zoa-102" target="n46zyQjSm6g1xJVM7zoa-52">
          <mxGeometry width="160" relative="1" as="geometry">
            <mxPoint x="450" y="400" as="sourcePoint" />
            <mxPoint x="610" y="400" as="targetPoint" />
          </mxGeometry>
        </mxCell>
        <mxCell id="n46zyQjSm6g1xJVM7zoa-78" value="Use" style="endArrow=open;endSize=12;dashed=1;html=1;rounded=0;" edge="1" parent="1" source="n46zyQjSm6g1xJVM7zoa-107" target="n46zyQjSm6g1xJVM7zoa-56">
          <mxGeometry width="160" relative="1" as="geometry">
            <mxPoint x="450" y="400" as="sourcePoint" />
            <mxPoint x="610" y="400" as="targetPoint" />
          </mxGeometry>
        </mxCell>
        <mxCell id="n46zyQjSm6g1xJVM7zoa-87" value="Use" style="endArrow=open;endSize=12;dashed=1;html=1;rounded=0;" edge="1" parent="1" source="n46zyQjSm6g1xJVM7zoa-111" target="n46zyQjSm6g1xJVM7zoa-42">
          <mxGeometry width="160" relative="1" as="geometry">
            <mxPoint x="2210" y="700" as="sourcePoint" />
            <mxPoint x="610" y="400" as="targetPoint" />
          </mxGeometry>
        </mxCell>
        <mxCell id="n46zyQjSm6g1xJVM7zoa-88" value="Use" style="endArrow=open;endSize=12;dashed=1;html=1;rounded=0;" edge="1" parent="1" source="n46zyQjSm6g1xJVM7zoa-36" target="n46zyQjSm6g1xJVM7zoa-31">
          <mxGeometry width="160" relative="1" as="geometry">
            <mxPoint x="1774.9999999999995" y="339.9970270270271" as="sourcePoint" />
            <mxPoint x="700" y="407.97" as="targetPoint" />
          </mxGeometry>
        </mxCell>
        <mxCell id="n46zyQjSm6g1xJVM7zoa-115" value="Extends" style="endArrow=block;endSize=16;endFill=0;html=1;rounded=0;" edge="1" parent="1" source="n46zyQjSm6g1xJVM7zoa-89" target="n46zyQjSm6g1xJVM7zoa-36">
          <mxGeometry width="160" relative="1" as="geometry">
            <mxPoint x="1260" y="200" as="sourcePoint" />
            <mxPoint x="1420" y="200" as="targetPoint" />
          </mxGeometry>
        </mxCell>
        <mxCell id="n46zyQjSm6g1xJVM7zoa-116" value="Extends" style="endArrow=block;endSize=16;endFill=0;html=1;rounded=0;" edge="1" parent="1" source="n46zyQjSm6g1xJVM7zoa-93" target="n46zyQjSm6g1xJVM7zoa-36">
          <mxGeometry width="160" relative="1" as="geometry">
            <mxPoint x="1260" y="200" as="sourcePoint" />
            <mxPoint x="1420" y="200" as="targetPoint" />
          </mxGeometry>
        </mxCell>
        <mxCell id="n46zyQjSm6g1xJVM7zoa-117" value="Extends" style="endArrow=block;endSize=16;endFill=0;html=1;rounded=0;" edge="1" parent="1" source="n46zyQjSm6g1xJVM7zoa-98" target="n46zyQjSm6g1xJVM7zoa-36">
          <mxGeometry width="160" relative="1" as="geometry">
            <mxPoint x="1260" y="200" as="sourcePoint" />
            <mxPoint x="1420" y="200" as="targetPoint" />
          </mxGeometry>
        </mxCell>
        <mxCell id="n46zyQjSm6g1xJVM7zoa-118" value="Extends" style="endArrow=block;endSize=16;endFill=0;html=1;rounded=0;" edge="1" parent="1" source="n46zyQjSm6g1xJVM7zoa-102" target="n46zyQjSm6g1xJVM7zoa-36">
          <mxGeometry width="160" relative="1" as="geometry">
            <mxPoint x="1260" y="200" as="sourcePoint" />
            <mxPoint x="1420" y="200" as="targetPoint" />
          </mxGeometry>
        </mxCell>
        <mxCell id="n46zyQjSm6g1xJVM7zoa-119" value="Extends" style="endArrow=block;endSize=16;endFill=0;html=1;rounded=0;" edge="1" parent="1" source="n46zyQjSm6g1xJVM7zoa-107" target="n46zyQjSm6g1xJVM7zoa-36">
          <mxGeometry width="160" relative="1" as="geometry">
            <mxPoint x="1260" y="200" as="sourcePoint" />
            <mxPoint x="1420" y="200" as="targetPoint" />
          </mxGeometry>
        </mxCell>
        <mxCell id="n46zyQjSm6g1xJVM7zoa-120" value="Extends" style="endArrow=block;endSize=16;endFill=0;html=1;rounded=0;" edge="1" parent="1" source="n46zyQjSm6g1xJVM7zoa-111" target="n46zyQjSm6g1xJVM7zoa-36">
          <mxGeometry width="160" relative="1" as="geometry">
            <mxPoint x="1260" y="200" as="sourcePoint" />
            <mxPoint x="1420" y="200" as="targetPoint" />
          </mxGeometry>
        </mxCell>
        <mxCell id="n46zyQjSm6g1xJVM7zoa-121" value="Use" style="endArrow=open;endSize=12;dashed=1;html=1;rounded=0;" edge="1" parent="1" source="n46zyQjSm6g1xJVM7zoa-89" target="n46zyQjSm6g1xJVM7zoa-62">
          <mxGeometry width="160" relative="1" as="geometry">
            <mxPoint x="450" y="400" as="sourcePoint" />
            <mxPoint x="610" y="400" as="targetPoint" />
          </mxGeometry>
        </mxCell>
        <mxCell id="n46zyQjSm6g1xJVM7zoa-126" value="" style="group" vertex="1" connectable="0" parent="1">
          <mxGeometry x="1120" y="844" width="1290" height="86" as="geometry" />
        </mxCell>
        <mxCell id="n46zyQjSm6g1xJVM7zoa-48" value="&lt;span style=&quot;background-color: initial;&quot;&gt;Real&lt;/span&gt;&lt;span style=&quot;background-color: initial;&quot;&gt;DataValue&lt;/span&gt;" style="swimlane;fontStyle=1;align=center;verticalAlign=top;childLayout=stackLayout;horizontal=1;startSize=26;horizontalStack=0;resizeParent=1;resizeParentMax=0;resizeLast=0;collapsible=1;marginBottom=0;whiteSpace=wrap;html=1;container=0;" vertex="1" parent="n46zyQjSm6g1xJVM7zoa-126">
          <mxGeometry x="452" width="160" height="86" as="geometry" />
        </mxCell>
        <mxCell id="n46zyQjSm6g1xJVM7zoa-52" value="&lt;span style=&quot;background-color: initial;&quot;&gt;Char&lt;/span&gt;&lt;span style=&quot;background-color: initial;&quot;&gt;DataValue&lt;/span&gt;" style="swimlane;fontStyle=1;align=center;verticalAlign=top;childLayout=stackLayout;horizontal=1;startSize=26;horizontalStack=0;resizeParent=1;resizeParentMax=0;resizeLast=0;collapsible=1;marginBottom=0;whiteSpace=wrap;html=1;container=0;" vertex="1" parent="n46zyQjSm6g1xJVM7zoa-126">
          <mxGeometry x="678" width="160" height="86" as="geometry" />
        </mxCell>
        <mxCell id="n46zyQjSm6g1xJVM7zoa-61" value="Extends" style="endArrow=block;endSize=16;endFill=0;html=1;rounded=0;" edge="1" parent="n46zyQjSm6g1xJVM7zoa-126" source="n46zyQjSm6g1xJVM7zoa-52" target="n46zyQjSm6g1xJVM7zoa-56">
          <mxGeometry width="160" relative="1" as="geometry">
            <mxPoint x="1219" y="120" as="sourcePoint" />
            <mxPoint x="1379" y="120" as="targetPoint" />
          </mxGeometry>
        </mxCell>
        <mxCell id="n46zyQjSm6g1xJVM7zoa-62" value="CharIntervalDataValue" style="swimlane;fontStyle=1;align=center;verticalAlign=top;childLayout=stackLayout;horizontal=1;startSize=26;horizontalStack=0;resizeParent=1;resizeParentMax=0;resizeLast=0;collapsible=1;marginBottom=0;whiteSpace=wrap;html=1;container=0;" vertex="1" parent="n46zyQjSm6g1xJVM7zoa-126">
          <mxGeometry width="160" height="86" as="geometry" />
        </mxCell>
        <mxCell id="n46zyQjSm6g1xJVM7zoa-66" value="&lt;span style=&quot;background-color: initial;&quot;&gt;StringInterval&lt;/span&gt;&lt;span style=&quot;background-color: initial;&quot;&gt;DataValue&lt;/span&gt;" style="swimlane;fontStyle=1;align=center;verticalAlign=top;childLayout=stackLayout;horizontal=1;startSize=26;horizontalStack=0;resizeParent=1;resizeParentMax=0;resizeLast=0;collapsible=1;marginBottom=0;whiteSpace=wrap;html=1;container=0;" vertex="1" parent="n46zyQjSm6g1xJVM7zoa-126">
          <mxGeometry x="226" width="160" height="86" as="geometry" />
        </mxCell>
        <mxCell id="n46zyQjSm6g1xJVM7zoa-70" value="Extends" style="endArrow=block;endSize=16;endFill=0;html=1;rounded=0;" edge="1" parent="n46zyQjSm6g1xJVM7zoa-126" source="n46zyQjSm6g1xJVM7zoa-62" target="n46zyQjSm6g1xJVM7zoa-66">
          <mxGeometry width="160" relative="1" as="geometry">
            <mxPoint x="1120" y="120" as="sourcePoint" />
            <mxPoint x="1280" y="120" as="targetPoint" />
          </mxGeometry>
        </mxCell>
        <mxCell id="n46zyQjSm6g1xJVM7zoa-43" value="+ field: type" style="text;strokeColor=none;fillColor=none;align=left;verticalAlign=top;spacingLeft=4;spacingRight=4;overflow=hidden;rotatable=0;points=[[0,0.5],[1,0.5]];portConstraint=eastwest;whiteSpace=wrap;html=1;container=0;" vertex="1" parent="n46zyQjSm6g1xJVM7zoa-126">
          <mxGeometry x="1130" y="26" width="160" height="26" as="geometry" />
        </mxCell>
        <mxCell id="n46zyQjSm6g1xJVM7zoa-44" value="" style="line;strokeWidth=1;fillColor=none;align=left;verticalAlign=middle;spacingTop=-1;spacingLeft=3;spacingRight=3;rotatable=0;labelPosition=right;points=[];portConstraint=eastwest;strokeColor=inherit;container=0;" vertex="1" parent="n46zyQjSm6g1xJVM7zoa-126">
          <mxGeometry x="1130" y="52" width="160" height="8" as="geometry" />
        </mxCell>
        <mxCell id="n46zyQjSm6g1xJVM7zoa-45" value="+ method(type): type" style="text;strokeColor=none;fillColor=none;align=left;verticalAlign=top;spacingLeft=4;spacingRight=4;overflow=hidden;rotatable=0;points=[[0,0.5],[1,0.5]];portConstraint=eastwest;whiteSpace=wrap;html=1;container=0;" vertex="1" parent="n46zyQjSm6g1xJVM7zoa-126">
          <mxGeometry x="1130" y="60" width="160" height="26" as="geometry" />
        </mxCell>
        <mxCell id="n46zyQjSm6g1xJVM7zoa-49" value="+ field: type" style="text;strokeColor=none;fillColor=none;align=left;verticalAlign=top;spacingLeft=4;spacingRight=4;overflow=hidden;rotatable=0;points=[[0,0.5],[1,0.5]];portConstraint=eastwest;whiteSpace=wrap;html=1;container=0;" vertex="1" parent="n46zyQjSm6g1xJVM7zoa-126">
          <mxGeometry x="452" y="26" width="160" height="26" as="geometry" />
        </mxCell>
        <mxCell id="n46zyQjSm6g1xJVM7zoa-50" value="" style="line;strokeWidth=1;fillColor=none;align=left;verticalAlign=middle;spacingTop=-1;spacingLeft=3;spacingRight=3;rotatable=0;labelPosition=right;points=[];portConstraint=eastwest;strokeColor=inherit;container=0;" vertex="1" parent="n46zyQjSm6g1xJVM7zoa-126">
          <mxGeometry x="452" y="52" width="160" height="8" as="geometry" />
        </mxCell>
        <mxCell id="n46zyQjSm6g1xJVM7zoa-51" value="+ method(type): type" style="text;strokeColor=none;fillColor=none;align=left;verticalAlign=top;spacingLeft=4;spacingRight=4;overflow=hidden;rotatable=0;points=[[0,0.5],[1,0.5]];portConstraint=eastwest;whiteSpace=wrap;html=1;container=0;" vertex="1" parent="n46zyQjSm6g1xJVM7zoa-126">
          <mxGeometry x="452" y="60" width="160" height="26" as="geometry" />
        </mxCell>
        <mxCell id="n46zyQjSm6g1xJVM7zoa-53" value="+ field: type" style="text;strokeColor=none;fillColor=none;align=left;verticalAlign=top;spacingLeft=4;spacingRight=4;overflow=hidden;rotatable=0;points=[[0,0.5],[1,0.5]];portConstraint=eastwest;whiteSpace=wrap;html=1;container=0;" vertex="1" parent="n46zyQjSm6g1xJVM7zoa-126">
          <mxGeometry x="678" y="26" width="160" height="26" as="geometry" />
        </mxCell>
        <mxCell id="n46zyQjSm6g1xJVM7zoa-54" value="" style="line;strokeWidth=1;fillColor=none;align=left;verticalAlign=middle;spacingTop=-1;spacingLeft=3;spacingRight=3;rotatable=0;labelPosition=right;points=[];portConstraint=eastwest;strokeColor=inherit;container=0;" vertex="1" parent="n46zyQjSm6g1xJVM7zoa-126">
          <mxGeometry x="678" y="52" width="160" height="8" as="geometry" />
        </mxCell>
        <mxCell id="n46zyQjSm6g1xJVM7zoa-55" value="+ method(type): type" style="text;strokeColor=none;fillColor=none;align=left;verticalAlign=top;spacingLeft=4;spacingRight=4;overflow=hidden;rotatable=0;points=[[0,0.5],[1,0.5]];portConstraint=eastwest;whiteSpace=wrap;html=1;container=0;" vertex="1" parent="n46zyQjSm6g1xJVM7zoa-126">
          <mxGeometry x="678" y="60" width="160" height="26" as="geometry" />
        </mxCell>
        <mxCell id="n46zyQjSm6g1xJVM7zoa-57" value="+ field: type" style="text;strokeColor=none;fillColor=none;align=left;verticalAlign=top;spacingLeft=4;spacingRight=4;overflow=hidden;rotatable=0;points=[[0,0.5],[1,0.5]];portConstraint=eastwest;whiteSpace=wrap;html=1;container=0;" vertex="1" parent="n46zyQjSm6g1xJVM7zoa-126">
          <mxGeometry x="904" y="26" width="160" height="26" as="geometry" />
        </mxCell>
        <mxCell id="n46zyQjSm6g1xJVM7zoa-58" value="" style="line;strokeWidth=1;fillColor=none;align=left;verticalAlign=middle;spacingTop=-1;spacingLeft=3;spacingRight=3;rotatable=0;labelPosition=right;points=[];portConstraint=eastwest;strokeColor=inherit;container=0;" vertex="1" parent="n46zyQjSm6g1xJVM7zoa-126">
          <mxGeometry x="904" y="52" width="160" height="8" as="geometry" />
        </mxCell>
        <mxCell id="n46zyQjSm6g1xJVM7zoa-59" value="+ method(type): type" style="text;strokeColor=none;fillColor=none;align=left;verticalAlign=top;spacingLeft=4;spacingRight=4;overflow=hidden;rotatable=0;points=[[0,0.5],[1,0.5]];portConstraint=eastwest;whiteSpace=wrap;html=1;container=0;" vertex="1" parent="n46zyQjSm6g1xJVM7zoa-126">
          <mxGeometry x="904" y="60" width="160" height="26" as="geometry" />
        </mxCell>
        <mxCell id="n46zyQjSm6g1xJVM7zoa-63" value="+ field: type" style="text;strokeColor=none;fillColor=none;align=left;verticalAlign=top;spacingLeft=4;spacingRight=4;overflow=hidden;rotatable=0;points=[[0,0.5],[1,0.5]];portConstraint=eastwest;whiteSpace=wrap;html=1;container=0;" vertex="1" parent="n46zyQjSm6g1xJVM7zoa-126">
          <mxGeometry y="26" width="160" height="26" as="geometry" />
        </mxCell>
        <mxCell id="n46zyQjSm6g1xJVM7zoa-64" value="" style="line;strokeWidth=1;fillColor=none;align=left;verticalAlign=middle;spacingTop=-1;spacingLeft=3;spacingRight=3;rotatable=0;labelPosition=right;points=[];portConstraint=eastwest;strokeColor=inherit;container=0;" vertex="1" parent="n46zyQjSm6g1xJVM7zoa-126">
          <mxGeometry y="52" width="160" height="8" as="geometry" />
        </mxCell>
        <mxCell id="n46zyQjSm6g1xJVM7zoa-65" value="+ method(type): type" style="text;strokeColor=none;fillColor=none;align=left;verticalAlign=top;spacingLeft=4;spacingRight=4;overflow=hidden;rotatable=0;points=[[0,0.5],[1,0.5]];portConstraint=eastwest;whiteSpace=wrap;html=1;container=0;" vertex="1" parent="n46zyQjSm6g1xJVM7zoa-126">
          <mxGeometry y="60" width="160" height="26" as="geometry" />
        </mxCell>
        <mxCell id="n46zyQjSm6g1xJVM7zoa-67" value="+ field: type" style="text;strokeColor=none;fillColor=none;align=left;verticalAlign=top;spacingLeft=4;spacingRight=4;overflow=hidden;rotatable=0;points=[[0,0.5],[1,0.5]];portConstraint=eastwest;whiteSpace=wrap;html=1;container=0;" vertex="1" parent="n46zyQjSm6g1xJVM7zoa-126">
          <mxGeometry x="226" y="26" width="160" height="26" as="geometry" />
        </mxCell>
        <mxCell id="n46zyQjSm6g1xJVM7zoa-68" value="" style="line;strokeWidth=1;fillColor=none;align=left;verticalAlign=middle;spacingTop=-1;spacingLeft=3;spacingRight=3;rotatable=0;labelPosition=right;points=[];portConstraint=eastwest;strokeColor=inherit;container=0;" vertex="1" parent="n46zyQjSm6g1xJVM7zoa-126">
          <mxGeometry x="226" y="52" width="160" height="8" as="geometry" />
        </mxCell>
        <mxCell id="n46zyQjSm6g1xJVM7zoa-69" value="+ method(type): type" style="text;strokeColor=none;fillColor=none;align=left;verticalAlign=top;spacingLeft=4;spacingRight=4;overflow=hidden;rotatable=0;points=[[0,0.5],[1,0.5]];portConstraint=eastwest;whiteSpace=wrap;html=1;container=0;" vertex="1" parent="n46zyQjSm6g1xJVM7zoa-126">
          <mxGeometry x="226" y="60" width="160" height="26" as="geometry" />
        </mxCell>
        <mxCell id="n46zyQjSm6g1xJVM7zoa-42" value="Integer&lt;span style=&quot;background-color: initial;&quot;&gt;DataValue&lt;/span&gt;" style="swimlane;fontStyle=1;align=center;verticalAlign=top;childLayout=stackLayout;horizontal=1;startSize=26;horizontalStack=0;resizeParent=1;resizeParentMax=0;resizeLast=0;collapsible=1;marginBottom=0;whiteSpace=wrap;html=1;container=0;" vertex="1" parent="n46zyQjSm6g1xJVM7zoa-126">
          <mxGeometry x="1130" width="160" height="86" as="geometry" />
        </mxCell>
        <mxCell id="n46zyQjSm6g1xJVM7zoa-56" value="&lt;span style=&quot;background-color: initial;&quot;&gt;String&lt;/span&gt;&lt;span style=&quot;background-color: initial;&quot;&gt;DataValue&lt;/span&gt;" style="swimlane;fontStyle=1;align=center;verticalAlign=top;childLayout=stackLayout;horizontal=1;startSize=26;horizontalStack=0;resizeParent=1;resizeParentMax=0;resizeLast=0;collapsible=1;marginBottom=0;whiteSpace=wrap;html=1;container=0;" vertex="1" parent="n46zyQjSm6g1xJVM7zoa-126">
          <mxGeometry x="904" width="160" height="86" as="geometry" />
        </mxCell>
        <mxCell id="n46zyQjSm6g1xJVM7zoa-123" value="" style="group" vertex="1" connectable="0" parent="1">
          <mxGeometry x="1180" y="630" width="1170" height="86" as="geometry" />
        </mxCell>
        <mxCell id="n46zyQjSm6g1xJVM7zoa-89" value="CharIntervalDataType" style="swimlane;fontStyle=1;align=center;verticalAlign=top;childLayout=stackLayout;horizontal=1;startSize=26;horizontalStack=0;resizeParent=1;resizeParentMax=0;resizeLast=0;collapsible=1;marginBottom=0;whiteSpace=wrap;html=1;" vertex="1" parent="n46zyQjSm6g1xJVM7zoa-123">
          <mxGeometry width="160" height="86" as="geometry" />
        </mxCell>
        <mxCell id="n46zyQjSm6g1xJVM7zoa-90" value="+ field: type" style="text;strokeColor=none;fillColor=none;align=left;verticalAlign=top;spacingLeft=4;spacingRight=4;overflow=hidden;rotatable=0;points=[[0,0.5],[1,0.5]];portConstraint=eastwest;whiteSpace=wrap;html=1;" vertex="1" parent="n46zyQjSm6g1xJVM7zoa-89">
          <mxGeometry y="26" width="160" height="26" as="geometry" />
        </mxCell>
        <mxCell id="n46zyQjSm6g1xJVM7zoa-91" value="" style="line;strokeWidth=1;fillColor=none;align=left;verticalAlign=middle;spacingTop=-1;spacingLeft=3;spacingRight=3;rotatable=0;labelPosition=right;points=[];portConstraint=eastwest;strokeColor=inherit;" vertex="1" parent="n46zyQjSm6g1xJVM7zoa-89">
          <mxGeometry y="52" width="160" height="8" as="geometry" />
        </mxCell>
        <mxCell id="n46zyQjSm6g1xJVM7zoa-92" value="+ method(type): type" style="text;strokeColor=none;fillColor=none;align=left;verticalAlign=top;spacingLeft=4;spacingRight=4;overflow=hidden;rotatable=0;points=[[0,0.5],[1,0.5]];portConstraint=eastwest;whiteSpace=wrap;html=1;" vertex="1" parent="n46zyQjSm6g1xJVM7zoa-89">
          <mxGeometry y="60" width="160" height="26" as="geometry" />
        </mxCell>
        <mxCell id="n46zyQjSm6g1xJVM7zoa-93" value="&lt;span style=&quot;background-color: initial;&quot;&gt;StringInterval&lt;/span&gt;&lt;span style=&quot;background-color: initial;&quot;&gt;DataType&lt;/span&gt;" style="swimlane;fontStyle=1;align=center;verticalAlign=top;childLayout=stackLayout;horizontal=1;startSize=26;horizontalStack=0;resizeParent=1;resizeParentMax=0;resizeLast=0;collapsible=1;marginBottom=0;whiteSpace=wrap;html=1;" vertex="1" parent="n46zyQjSm6g1xJVM7zoa-123">
          <mxGeometry x="202" width="160" height="86" as="geometry" />
        </mxCell>
        <mxCell id="n46zyQjSm6g1xJVM7zoa-94" value="+ field: type" style="text;strokeColor=none;fillColor=none;align=left;verticalAlign=top;spacingLeft=4;spacingRight=4;overflow=hidden;rotatable=0;points=[[0,0.5],[1,0.5]];portConstraint=eastwest;whiteSpace=wrap;html=1;" vertex="1" parent="n46zyQjSm6g1xJVM7zoa-93">
          <mxGeometry y="26" width="160" height="26" as="geometry" />
        </mxCell>
        <mxCell id="n46zyQjSm6g1xJVM7zoa-95" value="" style="line;strokeWidth=1;fillColor=none;align=left;verticalAlign=middle;spacingTop=-1;spacingLeft=3;spacingRight=3;rotatable=0;labelPosition=right;points=[];portConstraint=eastwest;strokeColor=inherit;" vertex="1" parent="n46zyQjSm6g1xJVM7zoa-93">
          <mxGeometry y="52" width="160" height="8" as="geometry" />
        </mxCell>
        <mxCell id="n46zyQjSm6g1xJVM7zoa-96" value="+ method(type): type" style="text;strokeColor=none;fillColor=none;align=left;verticalAlign=top;spacingLeft=4;spacingRight=4;overflow=hidden;rotatable=0;points=[[0,0.5],[1,0.5]];portConstraint=eastwest;whiteSpace=wrap;html=1;" vertex="1" parent="n46zyQjSm6g1xJVM7zoa-93">
          <mxGeometry y="60" width="160" height="26" as="geometry" />
        </mxCell>
        <mxCell id="n46zyQjSm6g1xJVM7zoa-98" value="&lt;span style=&quot;background-color: initial;&quot;&gt;Real&lt;/span&gt;&lt;span style=&quot;background-color: initial;&quot;&gt;DataType&lt;/span&gt;" style="swimlane;fontStyle=1;align=center;verticalAlign=top;childLayout=stackLayout;horizontal=1;startSize=26;horizontalStack=0;resizeParent=1;resizeParentMax=0;resizeLast=0;collapsible=1;marginBottom=0;whiteSpace=wrap;html=1;" vertex="1" parent="n46zyQjSm6g1xJVM7zoa-123">
          <mxGeometry x="404" width="160" height="86" as="geometry" />
        </mxCell>
        <mxCell id="n46zyQjSm6g1xJVM7zoa-99" value="+ field: type" style="text;strokeColor=none;fillColor=none;align=left;verticalAlign=top;spacingLeft=4;spacingRight=4;overflow=hidden;rotatable=0;points=[[0,0.5],[1,0.5]];portConstraint=eastwest;whiteSpace=wrap;html=1;" vertex="1" parent="n46zyQjSm6g1xJVM7zoa-98">
          <mxGeometry y="26" width="160" height="26" as="geometry" />
        </mxCell>
        <mxCell id="n46zyQjSm6g1xJVM7zoa-100" value="" style="line;strokeWidth=1;fillColor=none;align=left;verticalAlign=middle;spacingTop=-1;spacingLeft=3;spacingRight=3;rotatable=0;labelPosition=right;points=[];portConstraint=eastwest;strokeColor=inherit;" vertex="1" parent="n46zyQjSm6g1xJVM7zoa-98">
          <mxGeometry y="52" width="160" height="8" as="geometry" />
        </mxCell>
        <mxCell id="n46zyQjSm6g1xJVM7zoa-101" value="+ method(type): type" style="text;strokeColor=none;fillColor=none;align=left;verticalAlign=top;spacingLeft=4;spacingRight=4;overflow=hidden;rotatable=0;points=[[0,0.5],[1,0.5]];portConstraint=eastwest;whiteSpace=wrap;html=1;" vertex="1" parent="n46zyQjSm6g1xJVM7zoa-98">
          <mxGeometry y="60" width="160" height="26" as="geometry" />
        </mxCell>
        <mxCell id="n46zyQjSm6g1xJVM7zoa-102" value="&lt;span style=&quot;background-color: initial;&quot;&gt;Char&lt;/span&gt;&lt;span style=&quot;background-color: initial;&quot;&gt;DataType&lt;/span&gt;" style="swimlane;fontStyle=1;align=center;verticalAlign=top;childLayout=stackLayout;horizontal=1;startSize=26;horizontalStack=0;resizeParent=1;resizeParentMax=0;resizeLast=0;collapsible=1;marginBottom=0;whiteSpace=wrap;html=1;" vertex="1" parent="n46zyQjSm6g1xJVM7zoa-123">
          <mxGeometry x="606" width="160" height="86" as="geometry" />
        </mxCell>
        <mxCell id="n46zyQjSm6g1xJVM7zoa-103" value="+ field: type" style="text;strokeColor=none;fillColor=none;align=left;verticalAlign=top;spacingLeft=4;spacingRight=4;overflow=hidden;rotatable=0;points=[[0,0.5],[1,0.5]];portConstraint=eastwest;whiteSpace=wrap;html=1;" vertex="1" parent="n46zyQjSm6g1xJVM7zoa-102">
          <mxGeometry y="26" width="160" height="26" as="geometry" />
        </mxCell>
        <mxCell id="n46zyQjSm6g1xJVM7zoa-104" value="" style="line;strokeWidth=1;fillColor=none;align=left;verticalAlign=middle;spacingTop=-1;spacingLeft=3;spacingRight=3;rotatable=0;labelPosition=right;points=[];portConstraint=eastwest;strokeColor=inherit;" vertex="1" parent="n46zyQjSm6g1xJVM7zoa-102">
          <mxGeometry y="52" width="160" height="8" as="geometry" />
        </mxCell>
        <mxCell id="n46zyQjSm6g1xJVM7zoa-105" value="+ method(type): type" style="text;strokeColor=none;fillColor=none;align=left;verticalAlign=top;spacingLeft=4;spacingRight=4;overflow=hidden;rotatable=0;points=[[0,0.5],[1,0.5]];portConstraint=eastwest;whiteSpace=wrap;html=1;" vertex="1" parent="n46zyQjSm6g1xJVM7zoa-102">
          <mxGeometry y="60" width="160" height="26" as="geometry" />
        </mxCell>
        <mxCell id="n46zyQjSm6g1xJVM7zoa-107" value="&lt;span style=&quot;background-color: initial;&quot;&gt;String&lt;/span&gt;&lt;span style=&quot;background-color: initial;&quot;&gt;DataType&lt;/span&gt;" style="swimlane;fontStyle=1;align=center;verticalAlign=top;childLayout=stackLayout;horizontal=1;startSize=26;horizontalStack=0;resizeParent=1;resizeParentMax=0;resizeLast=0;collapsible=1;marginBottom=0;whiteSpace=wrap;html=1;" vertex="1" parent="n46zyQjSm6g1xJVM7zoa-123">
          <mxGeometry x="808" width="160" height="86" as="geometry" />
        </mxCell>
        <mxCell id="n46zyQjSm6g1xJVM7zoa-108" value="+ field: type" style="text;strokeColor=none;fillColor=none;align=left;verticalAlign=top;spacingLeft=4;spacingRight=4;overflow=hidden;rotatable=0;points=[[0,0.5],[1,0.5]];portConstraint=eastwest;whiteSpace=wrap;html=1;" vertex="1" parent="n46zyQjSm6g1xJVM7zoa-107">
          <mxGeometry y="26" width="160" height="26" as="geometry" />
        </mxCell>
        <mxCell id="n46zyQjSm6g1xJVM7zoa-109" value="" style="line;strokeWidth=1;fillColor=none;align=left;verticalAlign=middle;spacingTop=-1;spacingLeft=3;spacingRight=3;rotatable=0;labelPosition=right;points=[];portConstraint=eastwest;strokeColor=inherit;" vertex="1" parent="n46zyQjSm6g1xJVM7zoa-107">
          <mxGeometry y="52" width="160" height="8" as="geometry" />
        </mxCell>
        <mxCell id="n46zyQjSm6g1xJVM7zoa-110" value="+ method(type): type" style="text;strokeColor=none;fillColor=none;align=left;verticalAlign=top;spacingLeft=4;spacingRight=4;overflow=hidden;rotatable=0;points=[[0,0.5],[1,0.5]];portConstraint=eastwest;whiteSpace=wrap;html=1;" vertex="1" parent="n46zyQjSm6g1xJVM7zoa-107">
          <mxGeometry y="60" width="160" height="26" as="geometry" />
        </mxCell>
        <mxCell id="n46zyQjSm6g1xJVM7zoa-111" value="Integer&lt;span style=&quot;background-color: initial;&quot;&gt;DataType&lt;/span&gt;" style="swimlane;fontStyle=1;align=center;verticalAlign=top;childLayout=stackLayout;horizontal=1;startSize=26;horizontalStack=0;resizeParent=1;resizeParentMax=0;resizeLast=0;collapsible=1;marginBottom=0;whiteSpace=wrap;html=1;" vertex="1" parent="n46zyQjSm6g1xJVM7zoa-123">
          <mxGeometry x="1010" width="160" height="86" as="geometry" />
        </mxCell>
        <mxCell id="n46zyQjSm6g1xJVM7zoa-112" value="+ field: type" style="text;strokeColor=none;fillColor=none;align=left;verticalAlign=top;spacingLeft=4;spacingRight=4;overflow=hidden;rotatable=0;points=[[0,0.5],[1,0.5]];portConstraint=eastwest;whiteSpace=wrap;html=1;" vertex="1" parent="n46zyQjSm6g1xJVM7zoa-111">
          <mxGeometry y="26" width="160" height="26" as="geometry" />
        </mxCell>
        <mxCell id="n46zyQjSm6g1xJVM7zoa-113" value="" style="line;strokeWidth=1;fillColor=none;align=left;verticalAlign=middle;spacingTop=-1;spacingLeft=3;spacingRight=3;rotatable=0;labelPosition=right;points=[];portConstraint=eastwest;strokeColor=inherit;" vertex="1" parent="n46zyQjSm6g1xJVM7zoa-111">
          <mxGeometry y="52" width="160" height="8" as="geometry" />
        </mxCell>
        <mxCell id="n46zyQjSm6g1xJVM7zoa-114" value="+ method(type): type" style="text;strokeColor=none;fillColor=none;align=left;verticalAlign=top;spacingLeft=4;spacingRight=4;overflow=hidden;rotatable=0;points=[[0,0.5],[1,0.5]];portConstraint=eastwest;whiteSpace=wrap;html=1;" vertex="1" parent="n46zyQjSm6g1xJVM7zoa-111">
          <mxGeometry y="60" width="160" height="26" as="geometry" />
        </mxCell>
        <mxCell id="n46zyQjSm6g1xJVM7zoa-127" value="" style="endArrow=diamondThin;endFill=0;endSize=24;html=1;rounded=0;" edge="1" parent="1" source="n46zyQjSm6g1xJVM7zoa-31" target="n46zyQjSm6g1xJVM7zoa-27">
          <mxGeometry width="160" relative="1" as="geometry">
            <mxPoint x="660" y="700" as="sourcePoint" />
            <mxPoint x="820" y="700" as="targetPoint" />
          </mxGeometry>
        </mxCell>
      </root>
    </mxGraphModel>
  </diagram>
</mxfile>
